<svg xmlns="http://www.w3.org/2000/svg" xmlns:xlink="http://www.w3.org/1999/xlink" width="260" zoomAndPan="magnify" viewBox="0 0 194.87999 97.5" height="130" preserveAspectRatio="xMidYMid meet" version="1.0"><defs><g/></defs><g fill="#000000" fill-opacity="1"><g transform="translate(0.0737763, 51.624901)"><g><path d="M 8.09375 -5.578125 C 4.019531 -9.535156 1.984375 -14.554688 1.984375 -20.640625 C 1.984375 -26.722656 4.019531 -31.742188 8.09375 -35.703125 C 12.175781 -39.660156 17.160156 -41.640625 23.046875 -41.640625 C 27.609375 -41.640625 31.660156 -40.429688 35.203125 -38.015625 C 38.753906 -35.597656 41.234375 -32.242188 42.640625 -27.953125 L 30.703125 -27.953125 C 29.140625 -30.953125 26.644531 -32.453125 23.21875 -32.453125 C 19.789062 -32.453125 17.09375 -31.378906 15.125 -29.234375 C 13.15625 -27.097656 12.171875 -24.234375 12.171875 -20.640625 C 12.171875 -17.054688 13.15625 -14.191406 15.125 -12.046875 C 17.09375 -9.898438 19.789062 -8.828125 23.21875 -8.828125 C 26.644531 -8.828125 29.140625 -10.328125 30.703125 -13.328125 L 42.640625 -13.328125 C 41.234375 -9.046875 38.753906 -5.695312 35.203125 -3.28125 C 31.660156 -0.863281 27.609375 0.34375 23.046875 0.34375 C 17.160156 0.34375 12.175781 -1.628906 8.09375 -5.578125 Z M 8.09375 -5.578125 "/></g></g></g><g fill="#000000" fill-opacity="1"><g transform="translate(43.288514, 51.624901)"><g><path d="M 23.96875 -10.234375 C 25.300781 -11.640625 25.96875 -13.664062 25.96875 -16.3125 C 25.96875 -18.96875 25.285156 -20.988281 23.921875 -22.375 C 22.554688 -23.757812 20.9375 -24.453125 19.0625 -24.453125 C 17.195312 -24.453125 15.585938 -23.757812 14.234375 -22.375 C 12.890625 -20.988281 12.21875 -18.96875 12.21875 -16.3125 C 12.21875 -13.664062 12.910156 -11.640625 14.296875 -10.234375 C 15.679688 -8.828125 17.304688 -8.125 19.171875 -8.125 C 21.046875 -8.125 22.644531 -8.828125 23.96875 -10.234375 Z M 6.984375 -4.203125 C 3.691406 -7.285156 2.046875 -11.34375 2.046875 -16.375 C 2.046875 -21.40625 3.679688 -25.429688 6.953125 -28.453125 C 10.234375 -31.472656 14.289062 -32.984375 19.125 -32.984375 C 23.957031 -32.984375 28 -31.472656 31.25 -28.453125 C 34.507812 -25.429688 36.140625 -21.40625 36.140625 -16.375 C 36.140625 -11.34375 34.519531 -7.285156 31.28125 -4.203125 C 28.050781 -1.128906 24.019531 0.40625 19.1875 0.40625 C 14.351562 0.40625 10.285156 -1.128906 6.984375 -4.203125 Z M 6.984375 -4.203125 "/></g></g></g><g fill="#000000" fill-opacity="1"><g transform="translate(80.012252, 51.624901)"><g><path d="M 4.390625 0 L 4.390625 -43.28125 L 14.390625 -43.28125 L 14.390625 0 Z M 4.390625 0 "/></g></g></g><g fill="#000000" fill-opacity="1"><g transform="translate(97.321482, 51.624901)"><g><path d="M 4.390625 0 L 4.390625 -43.28125 L 14.390625 -43.28125 L 14.390625 0 Z M 4.390625 0 "/></g></g></g><g fill="#000000" fill-opacity="1"><g transform="translate(114.630711, 51.624901)"><g><path d="M 24.265625 -10.34375 C 25.710938 -11.75 26.4375 -13.738281 26.4375 -16.3125 C 26.4375 -18.882812 25.710938 -20.863281 24.265625 -22.25 C 22.828125 -23.632812 21.171875 -24.328125 19.296875 -24.328125 C 17.429688 -24.328125 15.773438 -23.625 14.328125 -22.21875 C 12.890625 -20.820312 12.171875 -18.835938 12.171875 -16.265625 C 12.171875 -13.691406 12.890625 -11.710938 14.328125 -10.328125 C 15.773438 -8.941406 17.429688 -8.25 19.296875 -8.25 C 21.171875 -8.25 22.828125 -8.945312 24.265625 -10.34375 Z M 6.3125 -4.265625 C 3.425781 -7.390625 1.984375 -11.382812 1.984375 -16.25 C 1.984375 -21.125 3.425781 -25.128906 6.3125 -28.265625 C 9.195312 -31.410156 12.710938 -32.984375 16.859375 -32.984375 C 21.015625 -32.984375 24.207031 -31.441406 26.4375 -28.359375 L 26.4375 -32.640625 L 36.4375 -32.640625 L 36.4375 0 L 26.4375 0 L 26.4375 -4.734375 C 24.019531 -1.304688 20.78125 0.40625 16.71875 0.40625 C 12.664062 0.40625 9.195312 -1.148438 6.3125 -4.265625 Z M 6.3125 -4.265625 "/></g></g></g><g fill="#000000" fill-opacity="1"><g transform="translate(153.985933, 51.624901)"><g><path d="M 26.484375 -10.328125 C 27.929688 -11.710938 28.65625 -13.691406 28.65625 -16.265625 C 28.65625 -18.835938 27.929688 -20.820312 26.484375 -22.21875 C 25.046875 -23.625 23.390625 -24.328125 21.515625 -24.328125 C 19.648438 -24.328125 17.992188 -23.632812 16.546875 -22.25 C 15.109375 -20.863281 14.390625 -18.882812 14.390625 -16.3125 C 14.390625 -13.738281 15.109375 -11.75 16.546875 -10.34375 C 17.992188 -8.945312 19.648438 -8.25 21.515625 -8.25 C 23.390625 -8.25 25.046875 -8.941406 26.484375 -10.328125 Z M 14.390625 -28.359375 C 16.609375 -31.441406 19.789062 -32.984375 23.9375 -32.984375 C 28.09375 -32.984375 31.613281 -31.410156 34.5 -28.265625 C 37.382812 -25.128906 38.828125 -21.125 38.828125 -16.25 C 38.828125 -11.382812 37.382812 -7.390625 34.5 -4.265625 C 31.613281 -1.148438 28.125 0.40625 24.03125 0.40625 C 19.9375 0.40625 16.722656 -1.304688 14.390625 -4.734375 L 14.390625 0 L 4.390625 0 L 4.390625 -43.28125 L 14.390625 -43.28125 Z M 14.390625 -28.359375 "/></g></g></g><g fill="#ff5757" fill-opacity="1"><g transform="translate(93.820357, 77.466758)"><g><path d="M 18.234375 -24.140625 L 24.09375 -24.140625 L 24.09375 0 L 18.234375 0 L 8.4375 -15.1875 L 8.4375 0 L 2.578125 0 L 2.578125 -24.140625 L 8.4375 -24.140625 L 18.234375 -8.953125 Z M 18.234375 -24.140625 "/></g></g></g><g fill="#ff5757" fill-opacity="1"><g transform="translate(120.488817, 77.466758)"><g><path d="M 10.703125 0.234375 C 7.910156 0.234375 5.625 -0.660156 3.84375 -2.453125 C 2.0625 -4.242188 1.171875 -6.625 1.171875 -9.59375 C 1.171875 -12.570312 2.054688 -14.9375 3.828125 -16.6875 C 5.597656 -18.445312 7.882812 -19.328125 10.6875 -19.328125 C 13.5 -19.328125 15.832031 -18.457031 17.6875 -16.71875 C 19.539062 -14.988281 20.46875 -12.582031 20.46875 -9.5 C 20.46875 -8.832031 20.421875 -8.210938 20.328125 -7.640625 L 7.171875 -7.640625 C 7.285156 -6.796875 7.660156 -6.101562 8.296875 -5.5625 C 8.929688 -5.03125 9.617188 -4.765625 10.359375 -4.765625 C 11.109375 -4.765625 11.664062 -4.835938 12.03125 -4.984375 C 12.394531 -5.128906 12.660156 -5.273438 12.828125 -5.421875 C 13.003906 -5.578125 13.226562 -5.828125 13.5 -6.171875 L 19.84375 -6.171875 C 19.300781 -4.253906 18.207031 -2.707031 16.5625 -1.53125 C 14.914062 -0.351562 12.960938 0.234375 10.703125 0.234375 Z M 14.359375 -11.3125 C 14.273438 -12.207031 13.890625 -12.929688 13.203125 -13.484375 C 12.515625 -14.046875 11.703125 -14.328125 10.765625 -14.328125 C 9.828125 -14.328125 9.035156 -14.046875 8.390625 -13.484375 C 7.753906 -12.929688 7.359375 -12.207031 7.203125 -11.3125 Z M 14.359375 -11.3125 "/></g></g></g><g fill="#ff5757" fill-opacity="1"><g transform="translate(142.152658, 77.466758)"><g><path d="M 24.0625 -19.125 L 29.578125 -19.125 L 23.859375 0 L 17.546875 0 L 14.875 -11.3125 L 12.171875 0 L 5.859375 0 L 0.140625 -19.125 L 6 -19.125 L 8.984375 -5.6875 L 11.9375 -19.125 L 18.140625 -19.125 L 21.078125 -5.6875 Z M 24.0625 -19.125 "/></g></g></g><g fill="#ff5757" fill-opacity="1"><g transform="translate(171.837603, 77.466758)"><g><path d="M 1.265625 -13.375 C 1.265625 -15.0625 1.984375 -16.472656 3.421875 -17.609375 C 4.867188 -18.753906 6.816406 -19.328125 9.265625 -19.328125 C 11.722656 -19.328125 13.707031 -18.765625 15.21875 -17.640625 C 16.726562 -16.523438 17.53125 -15 17.625 -13.0625 L 11.625 -13.0625 C 11.550781 -13.726562 11.320312 -14.179688 10.9375 -14.421875 C 10.550781 -14.660156 9.96875 -14.78125 9.1875 -14.78125 C 7.65625 -14.78125 6.890625 -14.3125 6.890625 -13.375 C 6.890625 -12.519531 7.828125 -11.9375 9.703125 -11.625 C 11.597656 -11.300781 13.320312 -10.804688 14.875 -10.140625 C 15.675781 -9.828125 16.34375 -9.296875 16.875 -8.546875 C 17.414062 -7.804688 17.6875 -6.898438 17.6875 -5.828125 C 17.6875 -4.046875 16.921875 -2.585938 15.390625 -1.453125 C 13.859375 -0.328125 11.925781 0.234375 9.59375 0.234375 C 7.269531 0.234375 5.328125 -0.296875 3.765625 -1.359375 C 2.210938 -2.421875 1.367188 -3.988281 1.234375 -6.0625 L 7.234375 -6.0625 C 7.390625 -4.894531 8.210938 -4.3125 9.703125 -4.3125 C 10.390625 -4.3125 10.953125 -4.472656 11.390625 -4.796875 C 11.835938 -5.117188 12.0625 -5.53125 12.0625 -6.03125 C 12.0625 -6.53125 11.691406 -6.925781 10.953125 -7.21875 C 10.210938 -7.519531 9.316406 -7.773438 8.265625 -7.984375 C 7.210938 -8.191406 6.15625 -8.445312 5.09375 -8.75 C 4.03125 -9.0625 3.125 -9.597656 2.375 -10.359375 C 1.632812 -11.128906 1.265625 -12.132812 1.265625 -13.375 Z M 1.265625 -13.375 "/></g></g></g><g fill="#5e17eb" fill-opacity="1"><g transform="translate(57.666148, 91.809807)"><g><path d="M 1.203125 0 L 1.203125 -11.9375 L 2.34375 -11.9375 L 2.34375 0 Z M 1.203125 0 "/></g></g></g><g fill="#5e17eb" fill-opacity="1"><g transform="translate(61.617821, 91.809807)"><g><path d="M 4.890625 0.15625 C 3.628906 0.15625 2.601562 -0.257812 1.8125 -1.09375 C 1.03125 -1.9375 0.640625 -3.039062 0.640625 -4.40625 C 0.640625 -5.78125 1.039062 -6.882812 1.84375 -7.71875 C 2.644531 -8.550781 3.679688 -8.96875 4.953125 -8.96875 C 6.234375 -8.96875 7.25 -8.570312 8 -7.78125 C 8.75 -7 9.125 -6.03125 9.125 -4.875 C 9.125 -4.5625 9.101562 -4.269531 9.0625 -4 L 1.8125 -4 C 1.851562 -2.988281 2.15625 -2.191406 2.71875 -1.609375 C 3.289062 -1.023438 4.015625 -0.734375 4.890625 -0.734375 C 5.566406 -0.734375 6.144531 -0.890625 6.625 -1.203125 C 7.101562 -1.515625 7.429688 -1.925781 7.609375 -2.4375 L 8.828125 -2.4375 C 8.535156 -1.6875 8.0625 -1.066406 7.40625 -0.578125 C 6.75 -0.0859375 5.910156 0.15625 4.890625 0.15625 Z M 7.96875 -4.890625 C 7.96875 -5.859375 7.671875 -6.628906 7.078125 -7.203125 C 6.492188 -7.773438 5.769531 -8.0625 4.90625 -8.0625 C 4.039062 -8.0625 3.320312 -7.78125 2.75 -7.21875 C 2.175781 -6.65625 1.863281 -5.878906 1.8125 -4.890625 Z M 7.96875 -4.890625 "/></g></g></g><g fill="#5e17eb" fill-opacity="1"><g transform="translate(71.779126, 91.809807)"><g><path d="M 5.125 -7.921875 L 2.6875 -7.921875 L 2.6875 -2.078125 C 2.6875 -1.640625 2.769531 -1.332031 2.9375 -1.15625 C 3.113281 -0.976562 3.425781 -0.890625 3.875 -0.890625 L 5.125 -0.890625 L 5.125 0 L 3.625 0 C 2.25 0 1.5625 -0.691406 1.5625 -2.078125 L 1.5625 -7.921875 L 0.34375 -7.921875 L 0.34375 -8.796875 L 1.5625 -8.796875 L 1.5625 -11.015625 L 2.6875 -11.015625 L 2.6875 -8.796875 L 5.125 -8.796875 Z M 5.125 -7.921875 "/></g></g></g><g fill="#5e17eb" fill-opacity="1"><g transform="translate(77.65015, 91.809807)"><g><path d="M 0.671875 -9.703125 L 0.484375 -12.8125 L 1.65625 -12.8125 L 1.46875 -9.703125 Z M 0.671875 -9.703125 "/></g></g></g><g fill="#5e17eb" fill-opacity="1"><g transform="translate(80.198615, 91.809807)"><g><path d="M 0.96875 -6.375 C 0.96875 -7.101562 1.269531 -7.71875 1.875 -8.21875 C 2.476562 -8.71875 3.242188 -8.96875 4.171875 -8.96875 C 5.109375 -8.96875 5.835938 -8.722656 6.359375 -8.234375 C 6.878906 -7.742188 7.164062 -7.066406 7.21875 -6.203125 L 6.0625 -6.203125 C 6.039062 -6.742188 5.859375 -7.1875 5.515625 -7.53125 C 5.171875 -7.882812 4.691406 -8.0625 4.078125 -8.0625 C 3.460938 -8.0625 2.976562 -7.910156 2.625 -7.609375 C 2.28125 -7.304688 2.109375 -6.941406 2.109375 -6.515625 C 2.109375 -6.097656 2.238281 -5.765625 2.5 -5.515625 C 2.757812 -5.265625 3.082031 -5.097656 3.46875 -5.015625 C 3.863281 -4.929688 4.289062 -4.828125 4.75 -4.703125 C 5.207031 -4.585938 5.628906 -4.460938 6.015625 -4.328125 C 6.410156 -4.191406 6.738281 -3.945312 7 -3.59375 C 7.257812 -3.25 7.390625 -2.800781 7.390625 -2.25 C 7.390625 -1.539062 7.09375 -0.960938 6.5 -0.515625 C 5.90625 -0.0664062 5.125 0.15625 4.15625 0.15625 C 3.195312 0.15625 2.4375 -0.0859375 1.875 -0.578125 C 1.320312 -1.078125 1.019531 -1.75 0.96875 -2.59375 L 2.125 -2.59375 C 2.144531 -2.050781 2.335938 -1.601562 2.703125 -1.25 C 3.066406 -0.90625 3.566406 -0.734375 4.203125 -0.734375 C 4.847656 -0.734375 5.347656 -0.867188 5.703125 -1.140625 C 6.054688 -1.421875 6.234375 -1.773438 6.234375 -2.203125 C 6.234375 -2.640625 6.101562 -2.976562 5.84375 -3.21875 C 5.59375 -3.46875 5.269531 -3.640625 4.875 -3.734375 C 4.488281 -3.828125 4.066406 -3.929688 3.609375 -4.046875 C 3.148438 -4.160156 2.722656 -4.28125 2.328125 -4.40625 C 1.929688 -4.539062 1.601562 -4.773438 1.34375 -5.109375 C 1.09375 -5.441406 0.96875 -5.863281 0.96875 -6.375 Z M 0.96875 -6.375 "/></g></g></g><g fill="#5e17eb" fill-opacity="1"><g transform="translate(88.956712, 91.809807)"><g/></g></g><g fill="#5e17eb" fill-opacity="1"><g transform="translate(94.198707, 91.809807)"><g><path d="M 0.96875 -6.375 C 0.96875 -7.101562 1.269531 -7.71875 1.875 -8.21875 C 2.476562 -8.71875 3.242188 -8.96875 4.171875 -8.96875 C 5.109375 -8.96875 5.835938 -8.722656 6.359375 -8.234375 C 6.878906 -7.742188 7.164062 -7.066406 7.21875 -6.203125 L 6.0625 -6.203125 C 6.039062 -6.742188 5.859375 -7.1875 5.515625 -7.53125 C 5.171875 -7.882812 4.691406 -8.0625 4.078125 -8.0625 C 3.460938 -8.0625 2.976562 -7.910156 2.625 -7.609375 C 2.28125 -7.304688 2.109375 -6.941406 2.109375 -6.515625 C 2.109375 -6.097656 2.238281 -5.765625 2.5 -5.515625 C 2.757812 -5.265625 3.082031 -5.097656 3.46875 -5.015625 C 3.863281 -4.929688 4.289062 -4.828125 4.75 -4.703125 C 5.207031 -4.585938 5.628906 -4.460938 6.015625 -4.328125 C 6.410156 -4.191406 6.738281 -3.945312 7 -3.59375 C 7.257812 -3.25 7.390625 -2.800781 7.390625 -2.25 C 7.390625 -1.539062 7.09375 -0.960938 6.5 -0.515625 C 5.90625 -0.0664062 5.125 0.15625 4.15625 0.15625 C 3.195312 0.15625 2.4375 -0.0859375 1.875 -0.578125 C 1.320312 -1.078125 1.019531 -1.75 0.96875 -2.59375 L 2.125 -2.59375 C 2.144531 -2.050781 2.335938 -1.601562 2.703125 -1.25 C 3.066406 -0.90625 3.566406 -0.734375 4.203125 -0.734375 C 4.847656 -0.734375 5.347656 -0.867188 5.703125 -1.140625 C 6.054688 -1.421875 6.234375 -1.773438 6.234375 -2.203125 C 6.234375 -2.640625 6.101562 -2.976562 5.84375 -3.21875 C 5.59375 -3.46875 5.269531 -3.640625 4.875 -3.734375 C 4.488281 -3.828125 4.066406 -3.929688 3.609375 -4.046875 C 3.148438 -4.160156 2.722656 -4.28125 2.328125 -4.40625 C 1.929688 -4.539062 1.601562 -4.773438 1.34375 -5.109375 C 1.09375 -5.441406 0.96875 -5.863281 0.96875 -6.375 Z M 0.96875 -6.375 "/></g></g></g><g fill="#5e17eb" fill-opacity="1"><g transform="translate(102.956804, 91.809807)"><g><path d="M 2.34375 -11.9375 L 2.34375 -7.375 C 2.925781 -8.4375 3.894531 -8.96875 5.25 -8.96875 C 6.226562 -8.96875 7.046875 -8.644531 7.703125 -8 C 8.359375 -7.363281 8.6875 -6.441406 8.6875 -5.234375 L 8.6875 0 L 7.578125 0 L 7.578125 -5.03125 C 7.578125 -6 7.34375 -6.734375 6.875 -7.234375 C 6.40625 -7.742188 5.765625 -8 4.953125 -8 C 4.140625 -8 3.5 -7.742188 3.03125 -7.234375 C 2.570312 -6.734375 2.34375 -6 2.34375 -5.03125 L 2.34375 0 L 1.203125 0 L 1.203125 -11.9375 Z M 2.34375 -11.9375 "/></g></g></g><g fill="#5e17eb" fill-opacity="1"><g transform="translate(113.182624, 91.809807)"><g><path d="M 7.375 -1.796875 C 8.019531 -2.460938 8.34375 -3.332031 8.34375 -4.40625 C 8.34375 -5.476562 8.019531 -6.34375 7.375 -7 C 6.738281 -7.664062 5.96875 -8 5.0625 -8 C 4.15625 -8 3.382812 -7.679688 2.75 -7.046875 C 2.125 -6.410156 1.8125 -5.550781 1.8125 -4.46875 C 1.8125 -3.394531 2.128906 -2.515625 2.765625 -1.828125 C 3.398438 -1.148438 4.164062 -0.8125 5.0625 -0.8125 C 5.96875 -0.8125 6.738281 -1.140625 7.375 -1.796875 Z M 4.90625 0.15625 C 3.675781 0.15625 2.65625 -0.273438 1.84375 -1.140625 C 1.039062 -2.015625 0.640625 -3.125 0.640625 -4.46875 C 0.640625 -5.820312 1.039062 -6.910156 1.84375 -7.734375 C 2.644531 -8.554688 3.664062 -8.96875 4.90625 -8.96875 C 5.695312 -8.96875 6.394531 -8.769531 7 -8.375 C 7.601562 -7.988281 8.050781 -7.492188 8.34375 -6.890625 L 8.34375 -8.796875 L 9.46875 -8.796875 L 9.46875 0 L 8.34375 0 L 8.34375 -1.9375 C 8.050781 -1.320312 7.601562 -0.816406 7 -0.421875 C 6.394531 -0.0351562 5.695312 0.15625 4.90625 0.15625 Z M 4.90625 0.15625 "/></g></g></g><g fill="#5e17eb" fill-opacity="1"><g transform="translate(124.26328, 91.809807)"><g><path d="M 2.34375 -8.796875 L 2.34375 -7.359375 C 2.820312 -8.429688 3.726562 -8.96875 5.0625 -8.96875 L 5.0625 -7.78125 L 4.734375 -7.78125 C 3.960938 -7.78125 3.367188 -7.570312 2.953125 -7.15625 C 2.546875 -6.738281 2.34375 -6.019531 2.34375 -5 L 2.34375 0 L 1.203125 0 L 1.203125 -8.796875 Z M 2.34375 -8.796875 "/></g></g></g><g fill="#5e17eb" fill-opacity="1"><g transform="translate(130.3601, 91.809807)"><g><path d="M 4.890625 0.15625 C 3.628906 0.15625 2.601562 -0.257812 1.8125 -1.09375 C 1.03125 -1.9375 0.640625 -3.039062 0.640625 -4.40625 C 0.640625 -5.78125 1.039062 -6.882812 1.84375 -7.71875 C 2.644531 -8.550781 3.679688 -8.96875 4.953125 -8.96875 C 6.234375 -8.96875 7.25 -8.570312 8 -7.78125 C 8.75 -7 9.125 -6.03125 9.125 -4.875 C 9.125 -4.5625 9.101562 -4.269531 9.0625 -4 L 1.8125 -4 C 1.851562 -2.988281 2.15625 -2.191406 2.71875 -1.609375 C 3.289062 -1.023438 4.015625 -0.734375 4.890625 -0.734375 C 5.566406 -0.734375 6.144531 -0.890625 6.625 -1.203125 C 7.101562 -1.515625 7.429688 -1.925781 7.609375 -2.4375 L 8.828125 -2.4375 C 8.535156 -1.6875 8.0625 -1.066406 7.40625 -0.578125 C 6.75 -0.0859375 5.910156 0.15625 4.890625 0.15625 Z M 7.96875 -4.890625 C 7.96875 -5.859375 7.671875 -6.628906 7.078125 -7.203125 C 6.492188 -7.773438 5.769531 -8.0625 4.90625 -8.0625 C 4.039062 -8.0625 3.320312 -7.78125 2.75 -7.21875 C 2.175781 -6.65625 1.863281 -5.878906 1.8125 -4.890625 Z M 7.96875 -4.890625 "/></g></g></g><g fill="#5e17eb" fill-opacity="1"><g transform="translate(140.521405, 91.809807)"><g><path d="M 3.921875 -0.234375 C 3.765625 -0.078125 3.578125 0 3.359375 0 C 3.148438 0 2.96875 -0.078125 2.8125 -0.234375 C 2.65625 -0.390625 2.578125 -0.570312 2.578125 -0.78125 C 2.578125 -1 2.65625 -1.1875 2.8125 -1.34375 C 2.96875 -1.5 3.148438 -1.578125 3.359375 -1.578125 C 3.578125 -1.578125 3.765625 -1.5 3.921875 -1.34375 C 4.078125 -1.1875 4.15625 -1 4.15625 -0.78125 C 4.15625 -0.570312 4.078125 -0.390625 3.921875 -0.234375 Z M 2.890625 -3.140625 L 2.75 -12.046875 L 3.90625 -12.046875 L 3.765625 -3.140625 Z M 2.890625 -3.140625 "/></g></g></g></svg>